<?xml version="1.0" encoding="UTF-8"?>
<svg id="Layer_2" data-name="Layer 2" xmlns="http://www.w3.org/2000/svg" viewBox="0 0 500 274.51">
  <defs>
    <style>
      .cls-1 {
        fill: violet;
      }

      .cls-2 {
        fill: #fff;
      }

      .cls-3 {
        fill: indigo;
      }

      .cls-4 {
        fill: green;
      }

      .cls-5 {
        fill: blue;
      }

      .cls-6 {
        fill: orange;
      }

      .cls-7 {
        fill: red;
      }

      .cls-8 {
        fill: #ff0;
      }
    </style>
  </defs>
  <g id="Layer_2-2" data-name="Layer 2">
    <g id="Layer_1-2" data-name="Layer 1-2">
      <g>
        <rect class="cls-2" x="490.2" y="254.9" width="9.8" height="9.8"/>
        <rect class="cls-2" x="490.2" y="245.1" width="9.8" height="9.8"/>
        <rect class="cls-2" x="490.2" y="235.29" width="9.8" height="9.81"/>
        <rect class="cls-2" x="490.2" y="225.49" width="9.8" height="9.8"/>
        <rect class="cls-2" x="490.2" y="215.68" width="9.8" height="9.81"/>
        <rect class="cls-2" x="490.2" y="205.88" width="9.8" height="9.8"/>
        <rect class="cls-2" x="490.2" y="196.08" width="9.8" height="9.8"/>
        <rect class="cls-2" x="490.2" y="186.27" width="9.8" height="9.81"/>
        <rect class="cls-2" x="480.39" y="264.7" width="9.81" height="9.81"/>
        <rect class="cls-2" x="480.39" y="215.68" width="9.81" height="9.81"/>
        <rect class="cls-2" x="480.39" y="176.47" width="9.81" height="9.8"/>
        <rect class="cls-2" x="470.59" y="264.7" width="9.8" height="9.81"/>
        <rect class="cls-2" x="470.59" y="215.68" width="9.8" height="9.81"/>
        <rect class="cls-2" x="470.59" y="176.47" width="9.8" height="9.8"/>
        <rect class="cls-2" x="460.78" y="264.7" width="9.81" height="9.81"/>
        <rect class="cls-2" x="460.78" y="215.68" width="9.81" height="9.81"/>
        <rect class="cls-2" x="460.78" y="176.47" width="9.81" height="9.8"/>
        <rect class="cls-2" x="450.98" y="254.9" width="9.8" height="9.8"/>
        <rect class="cls-2" x="450.98" y="205.88" width="9.8" height="9.8"/>
        <rect class="cls-2" x="450.98" y="196.08" width="9.8" height="9.8"/>
        <rect class="cls-2" x="450.98" y="186.27" width="9.8" height="9.81"/>
        <rect class="cls-2" x="431.37" y="215.68" width="9.81" height="9.81"/>
        <rect class="cls-2" x="431.37" y="205.88" width="9.81" height="9.8"/>
        <rect class="cls-2" x="431.37" y="196.08" width="9.81" height="9.8"/>
        <rect class="cls-2" x="431.37" y="186.27" width="9.81" height="9.81"/>
        <rect class="cls-1" x="431.37" y="127.45" width="9.81" height="9.8"/>
        <rect class="cls-1" x="431.37" y="117.64" width="9.81" height="9.81"/>
        <rect class="cls-1" x="431.37" y="107.84" width="9.81" height="9.8"/>
        <rect class="cls-1" x="431.37" y="98.04" width="9.81" height="9.8"/>
        <rect class="cls-2" x="421.57" y="176.47" width="9.8" height="9.8"/>
        <rect class="cls-1" x="421.57" y="137.25" width="9.8" height="9.81"/>
        <rect class="cls-2" x="411.76" y="176.47" width="9.81" height="9.8"/>
        <rect class="cls-1" x="411.76" y="137.25" width="9.81" height="9.81"/>
        <rect class="cls-2" x="401.96" y="176.47" width="9.8" height="9.8"/>
        <rect class="cls-1" x="401.96" y="127.45" width="9.8" height="9.8"/>
        <rect class="cls-1" x="401.96" y="117.64" width="9.8" height="9.81"/>
        <rect class="cls-2" x="392.16" y="215.68" width="9.8" height="9.81"/>
        <rect class="cls-2" x="392.16" y="205.88" width="9.8" height="9.8"/>
        <rect class="cls-2" x="392.16" y="196.08" width="9.8" height="9.8"/>
        <rect class="cls-2" x="392.16" y="186.27" width="9.8" height="9.81"/>
        <rect class="cls-1" x="392.16" y="137.25" width="9.8" height="9.81"/>
        <rect class="cls-1" x="382.35" y="137.25" width="9.81" height="9.81"/>
        <rect class="cls-2" x="372.55" y="215.68" width="9.8" height="9.81"/>
        <rect class="cls-2" x="372.55" y="205.88" width="9.8" height="9.8"/>
        <rect class="cls-2" x="372.55" y="196.08" width="9.8" height="9.8"/>
        <rect class="cls-2" x="372.55" y="186.27" width="9.8" height="9.81"/>
        <rect class="cls-2" x="372.55" y="176.47" width="9.8" height="9.8"/>
        <rect class="cls-2" x="372.55" y="156.86" width="9.8" height="9.8"/>
        <rect class="cls-1" x="372.55" y="127.45" width="9.8" height="9.8"/>
        <rect class="cls-1" x="372.55" y="117.64" width="9.8" height="9.81"/>
        <rect class="cls-1" x="372.55" y="107.84" width="9.8" height="9.8"/>
        <rect class="cls-1" x="372.55" y="98.04" width="9.8" height="9.8"/>
        <rect class="cls-2" x="352.94" y="176.47" width="9.81" height="9.8"/>
        <rect class="cls-3" x="352.94" y="127.45" width="9.81" height="9.8"/>
        <rect class="cls-3" x="352.94" y="117.64" width="9.81" height="9.81"/>
        <rect class="cls-3" x="352.94" y="107.84" width="9.81" height="9.8"/>
        <rect class="cls-2" x="343.14" y="215.68" width="9.8" height="9.81"/>
        <rect class="cls-2" x="343.14" y="176.47" width="9.8" height="9.8"/>
        <rect class="cls-3" x="343.14" y="137.25" width="9.8" height="9.81"/>
        <rect class="cls-3" x="343.14" y="98.04" width="9.8" height="9.8"/>
        <rect class="cls-2" x="333.33" y="205.88" width="9.81" height="9.8"/>
        <rect class="cls-2" x="333.33" y="196.08" width="9.81" height="9.8"/>
        <rect class="cls-2" x="333.33" y="186.27" width="9.81" height="9.81"/>
        <rect class="cls-2" x="333.33" y="176.47" width="9.81" height="9.8"/>
        <rect class="cls-2" x="333.33" y="166.66" width="9.81" height="9.81"/>
        <rect class="cls-2" x="333.33" y="156.86" width="9.81" height="9.8"/>
        <rect class="cls-3" x="333.33" y="137.25" width="9.81" height="9.81"/>
        <rect class="cls-3" x="333.33" y="98.04" width="9.81" height="9.8"/>
        <rect class="cls-2" x="333.33" y="19.6" width="9.81" height="9.81"/>
        <rect class="cls-2" x="323.53" y="176.47" width="9.8" height="9.8"/>
        <rect class="cls-3" x="323.53" y="137.25" width="9.8" height="9.81"/>
        <rect class="cls-3" x="323.53" y="98.04" width="9.8" height="9.8"/>
        <rect class="cls-2" x="323.53" y="58.82" width="9.8" height="9.8"/>
        <rect class="cls-2" x="323.53" y="19.6" width="9.8" height="9.81"/>
        <rect class="cls-2" x="313.73" y="176.47" width="9.8" height="9.8"/>
        <rect class="cls-3" x="313.73" y="127.45" width="9.8" height="9.8"/>
        <rect class="cls-3" x="313.73" y="117.64" width="9.8" height="9.81"/>
        <rect class="cls-3" x="313.73" y="107.84" width="9.8" height="9.8"/>
        <rect class="cls-2" x="313.73" y="49.02" width="9.8" height="9.8"/>
        <rect class="cls-2" x="313.73" y="39.21" width="9.8" height="9.81"/>
        <rect class="cls-2" x="313.73" y="29.41" width="9.8" height="9.8"/>
        <rect class="cls-2" x="313.73" y="19.6" width="9.8" height="9.81"/>
        <rect class="cls-2" x="313.73" y="9.8" width="9.8" height="9.8"/>
        <rect class="cls-2" x="313.73" width="9.8" height="9.8"/>
        <rect class="cls-2" x="303.92" y="19.6" width="9.81" height="9.81"/>
        <rect class="cls-2" x="294.12" y="215.68" width="9.8" height="9.81"/>
        <rect class="cls-2" x="294.12" y="205.88" width="9.8" height="9.8"/>
        <rect class="cls-2" x="294.12" y="196.08" width="9.8" height="9.8"/>
        <rect class="cls-2" x="294.12" y="186.27" width="9.8" height="9.81"/>
        <rect class="cls-2" x="294.12" y="176.47" width="9.8" height="9.8"/>
        <rect class="cls-2" x="294.12" y="166.66" width="9.8" height="9.81"/>
        <rect class="cls-2" x="294.12" y="156.86" width="9.8" height="9.8"/>
        <rect class="cls-5" x="294.12" y="127.45" width="9.8" height="9.8"/>
        <rect class="cls-5" x="294.12" y="117.64" width="9.8" height="9.81"/>
        <rect class="cls-5" x="294.12" y="107.84" width="9.8" height="9.8"/>
        <rect class="cls-2" x="294.12" y="19.6" width="9.8" height="9.81"/>
        <rect class="cls-5" x="284.31" y="137.25" width="9.81" height="9.81"/>
        <rect class="cls-5" x="284.31" y="98.04" width="9.81" height="9.8"/>
        <rect class="cls-2" x="274.51" y="205.88" width="9.8" height="9.8"/>
        <rect class="cls-2" x="274.51" y="196.08" width="9.8" height="9.8"/>
        <rect class="cls-2" x="274.51" y="186.27" width="9.8" height="9.81"/>
        <rect class="cls-2" x="274.51" y="176.47" width="9.8" height="9.8"/>
        <rect class="cls-5" x="274.51" y="137.25" width="9.8" height="9.81"/>
        <rect class="cls-5" x="274.51" y="98.04" width="9.8" height="9.8"/>
        <rect class="cls-2" x="274.51" y="58.82" width="9.8" height="9.8"/>
        <rect class="cls-2" x="274.51" y="49.02" width="9.8" height="9.8"/>
        <rect class="cls-2" x="274.51" y="39.21" width="9.8" height="9.81"/>
        <rect class="cls-2" x="274.51" y="29.41" width="9.8" height="9.8"/>
        <rect class="cls-2" x="274.51" y="19.6" width="9.8" height="9.81"/>
        <rect class="cls-2" x="274.51" width="9.8" height="9.8"/>
        <rect class="cls-2" x="264.71" y="215.68" width="9.8" height="9.81"/>
        <rect class="cls-5" x="264.71" y="137.25" width="9.8" height="9.81"/>
        <rect class="cls-5" x="264.71" y="107.84" width="9.8" height="9.8"/>
        <rect class="cls-2" x="254.9" y="215.68" width="9.81" height="9.81"/>
        <rect class="cls-5" x="254.9" y="137.25" width="9.81" height="9.81"/>
        <rect class="cls-5" x="254.9" y="127.45" width="9.81" height="9.8"/>
        <rect class="cls-5" x="254.9" y="117.64" width="9.81" height="9.81"/>
        <rect class="cls-5" x="254.9" y="107.84" width="9.81" height="9.8"/>
        <rect class="cls-5" x="254.9" y="98.04" width="9.81" height="9.8"/>
        <rect class="cls-5" x="254.9" y="88.23" width="9.81" height="9.81"/>
        <rect class="cls-5" x="254.9" y="78.43" width="9.81" height="9.8"/>
        <rect class="cls-2" x="254.9" y="49.02" width="9.81" height="9.8"/>
        <rect class="cls-2" x="254.9" y="39.21" width="9.81" height="9.81"/>
        <rect class="cls-2" x="254.9" y="29.41" width="9.81" height="9.8"/>
        <rect class="cls-2" x="245.1" y="215.68" width="9.8" height="9.81"/>
        <rect class="cls-2" x="245.1" y="58.82" width="9.8" height="9.8"/>
        <rect class="cls-2" x="245.1" y="19.6" width="9.8" height="9.81"/>
        <rect class="cls-2" x="235.29" y="205.88" width="9.81" height="9.8"/>
        <rect class="cls-2" x="235.29" y="196.08" width="9.81" height="9.8"/>
        <rect class="cls-2" x="235.29" y="186.27" width="9.81" height="9.81"/>
        <rect class="cls-2" x="235.29" y="176.47" width="9.81" height="9.8"/>
        <rect class="cls-4" x="235.29" y="137.25" width="9.81" height="9.81"/>
        <rect class="cls-4" x="235.29" y="127.45" width="9.81" height="9.8"/>
        <rect class="cls-4" x="235.29" y="117.64" width="9.81" height="9.81"/>
        <rect class="cls-4" x="235.29" y="107.84" width="9.81" height="9.8"/>
        <rect class="cls-2" x="235.29" y="58.82" width="9.81" height="9.8"/>
        <rect class="cls-2" x="235.29" y="19.6" width="9.81" height="9.81"/>
        <rect class="cls-4" x="225.49" y="98.04" width="9.8" height="9.8"/>
        <rect class="cls-2" x="225.49" y="58.82" width="9.8" height="9.8"/>
        <rect class="cls-2" x="225.49" y="29.41" width="9.8" height="9.8"/>
        <rect class="cls-2" x="215.69" y="205.88" width="9.8" height="9.8"/>
        <rect class="cls-2" x="215.69" y="176.47" width="9.8" height="9.8"/>
        <rect class="cls-4" x="215.69" y="98.04" width="9.8" height="9.8"/>
        <rect class="cls-2" x="215.69" y="58.82" width="9.8" height="9.8"/>
        <rect class="cls-2" x="215.69" y="49.02" width="9.8" height="9.8"/>
        <rect class="cls-2" x="215.69" y="39.21" width="9.8" height="9.81"/>
        <rect class="cls-2" x="215.69" y="29.41" width="9.8" height="9.8"/>
        <rect class="cls-2" x="215.69" y="19.6" width="9.8" height="9.81"/>
        <rect class="cls-2" x="215.69" y="9.8" width="9.8" height="9.8"/>
        <rect class="cls-2" x="215.69" width="9.8" height="9.8"/>
        <rect class="cls-2" x="205.88" y="215.68" width="9.81" height="9.81"/>
        <rect class="cls-2" x="205.88" y="196.08" width="9.81" height="9.8"/>
        <rect class="cls-2" x="205.88" y="176.47" width="9.81" height="9.8"/>
        <rect class="cls-4" x="205.88" y="98.04" width="9.81" height="9.8"/>
        <rect class="cls-2" x="196.08" y="215.68" width="9.8" height="9.81"/>
        <rect class="cls-2" x="196.08" y="196.08" width="9.8" height="9.8"/>
        <rect class="cls-2" x="196.08" y="176.47" width="9.8" height="9.8"/>
        <rect class="cls-4" x="196.08" y="137.25" width="9.8" height="9.81"/>
        <rect class="cls-4" x="196.08" y="127.45" width="9.8" height="9.8"/>
        <rect class="cls-4" x="196.08" y="117.64" width="9.8" height="9.81"/>
        <rect class="cls-4" x="196.08" y="107.84" width="9.8" height="9.8"/>
        <rect class="cls-2" x="196.08" y="29.41" width="9.8" height="9.8"/>
        <rect class="cls-2" x="186.27" y="215.68" width="9.81" height="9.81"/>
        <rect class="cls-2" x="186.27" y="196.08" width="9.81" height="9.8"/>
        <rect class="cls-2" x="186.27" y="176.47" width="9.81" height="9.8"/>
        <rect class="cls-2" x="186.27" y="29.41" width="9.81" height="9.8"/>
        <rect class="cls-2" x="176.47" y="215.68" width="9.8" height="9.81"/>
        <rect class="cls-2" x="176.47" y="186.27" width="9.8" height="9.81"/>
        <rect class="cls-8" x="176.47" y="137.25" width="9.8" height="9.81"/>
        <rect class="cls-8" x="176.47" y="127.45" width="9.8" height="9.8"/>
        <rect class="cls-8" x="176.47" y="117.64" width="9.8" height="9.81"/>
        <rect class="cls-8" x="176.47" y="107.84" width="9.8" height="9.8"/>
        <rect class="cls-8" x="176.47" y="98.04" width="9.8" height="9.8"/>
        <rect class="cls-8" x="176.47" y="78.43" width="9.8" height="9.8"/>
        <rect class="cls-2" x="176.47" y="29.41" width="9.8" height="9.8"/>
        <rect class="cls-2" x="156.86" y="215.68" width="9.81" height="9.81"/>
        <rect class="cls-2" x="156.86" y="205.88" width="9.81" height="9.8"/>
        <rect class="cls-2" x="156.86" y="196.08" width="9.81" height="9.8"/>
        <rect class="cls-2" x="156.86" y="186.27" width="9.81" height="9.81"/>
        <rect class="cls-6" x="156.86" y="137.25" width="9.81" height="9.81"/>
        <rect class="cls-6" x="156.86" y="127.45" width="9.81" height="9.8"/>
        <rect class="cls-6" x="156.86" y="117.64" width="9.81" height="9.81"/>
        <rect class="cls-6" x="156.86" y="107.84" width="9.81" height="9.8"/>
        <rect class="cls-2" x="156.86" y="49.02" width="9.81" height="9.8"/>
        <rect class="cls-2" x="156.86" y="39.21" width="9.81" height="9.81"/>
        <rect class="cls-2" x="156.86" y="19.6" width="9.81" height="9.81"/>
        <rect class="cls-2" x="156.86" y="9.8" width="9.81" height="9.8"/>
        <rect class="cls-2" x="147.06" y="176.47" width="9.8" height="9.8"/>
        <rect class="cls-6" x="147.06" y="137.25" width="9.8" height="9.81"/>
        <rect class="cls-6" x="147.06" y="117.64" width="9.8" height="9.81"/>
        <rect class="cls-6" x="147.06" y="98.04" width="9.8" height="9.8"/>
        <rect class="cls-2" x="147.06" y="58.82" width="9.8" height="9.8"/>
        <rect class="cls-2" x="147.06" y="29.41" width="9.8" height="9.8"/>
        <rect class="cls-2" x="147.06" width="9.8" height="9.8"/>
        <rect class="cls-2" x="137.25" y="176.47" width="9.81" height="9.8"/>
        <rect class="cls-6" x="137.25" y="137.25" width="9.81" height="9.81"/>
        <rect class="cls-6" x="137.25" y="117.64" width="9.81" height="9.81"/>
        <rect class="cls-6" x="137.25" y="98.04" width="9.81" height="9.8"/>
        <rect class="cls-2" x="137.25" y="58.82" width="9.81" height="9.8"/>
        <rect class="cls-2" x="137.25" y="29.41" width="9.81" height="9.8"/>
        <rect class="cls-2" x="137.25" width="9.81" height="9.8"/>
        <rect class="cls-2" x="127.45" y="176.47" width="9.8" height="9.8"/>
        <rect class="cls-6" x="127.45" y="137.25" width="9.8" height="9.81"/>
        <rect class="cls-6" x="127.45" y="117.64" width="9.8" height="9.81"/>
        <rect class="cls-6" x="127.45" y="98.04" width="9.8" height="9.8"/>
        <rect class="cls-2" x="127.45" y="58.82" width="9.8" height="9.8"/>
        <rect class="cls-2" x="127.45" y="29.41" width="9.8" height="9.8"/>
        <rect class="cls-2" x="127.45" width="9.8" height="9.8"/>
        <rect class="cls-2" x="117.65" y="215.68" width="9.8" height="9.81"/>
        <rect class="cls-2" x="117.65" y="205.88" width="9.8" height="9.8"/>
        <rect class="cls-2" x="117.65" y="196.08" width="9.8" height="9.8"/>
        <rect class="cls-2" x="117.65" y="186.27" width="9.8" height="9.81"/>
        <rect class="cls-6" x="117.65" y="127.45" width="9.8" height="9.8"/>
        <rect class="cls-6" x="117.65" y="98.04" width="9.8" height="9.8"/>
        <rect class="cls-2" x="117.65" y="49.02" width="9.8" height="9.8"/>
        <rect class="cls-2" x="117.65" y="39.21" width="9.8" height="9.81"/>
        <rect class="cls-2" x="117.65" y="19.6" width="9.8" height="9.81"/>
        <rect class="cls-2" x="117.65" y="9.8" width="9.8" height="9.8"/>
        <rect class="cls-2" x="98.04" y="205.88" width="9.8" height="9.8"/>
        <rect class="cls-2" x="98.04" y="196.08" width="9.8" height="9.8"/>
        <rect class="cls-2" x="98.04" y="186.27" width="9.8" height="9.81"/>
        <rect class="cls-7" x="98.04" y="137.25" width="9.8" height="9.81"/>
        <rect class="cls-7" x="98.04" y="98.04" width="9.8" height="9.8"/>
        <rect class="cls-7" x="98.04" y="88.23" width="9.8" height="9.81"/>
        <rect class="cls-2" x="88.24" y="215.68" width="9.8" height="9.81"/>
        <rect class="cls-2" x="88.24" y="176.47" width="9.8" height="9.8"/>
        <rect class="cls-7" x="88.24" y="127.45" width="9.8" height="9.8"/>
        <rect class="cls-7" x="88.24" y="107.84" width="9.8" height="9.8"/>
        <rect class="cls-7" x="88.24" y="78.43" width="9.8" height="9.8"/>
        <rect class="cls-2" x="78.43" y="215.68" width="9.81" height="9.81"/>
        <rect class="cls-2" x="78.43" y="176.47" width="9.81" height="9.8"/>
        <rect class="cls-7" x="78.43" y="117.64" width="9.81" height="9.81"/>
        <rect class="cls-7" x="78.43" y="107.84" width="9.81" height="9.8"/>
        <rect class="cls-7" x="78.43" y="78.43" width="9.81" height="9.8"/>
        <rect class="cls-2" x="68.63" y="215.68" width="9.8" height="9.81"/>
        <rect class="cls-2" x="68.63" y="176.47" width="9.8" height="9.8"/>
        <rect class="cls-7" x="68.63" y="107.84" width="9.8" height="9.8"/>
        <rect class="cls-7" x="68.63" y="78.43" width="9.8" height="9.8"/>
        <rect class="cls-2" x="58.82" y="205.88" width="9.81" height="9.8"/>
        <rect class="cls-2" x="58.82" y="196.08" width="9.81" height="9.8"/>
        <rect class="cls-2" x="58.82" y="186.27" width="9.81" height="9.81"/>
        <rect class="cls-7" x="58.82" y="137.25" width="9.81" height="9.81"/>
        <rect class="cls-7" x="58.82" y="127.45" width="9.81" height="9.8"/>
        <rect class="cls-7" x="58.82" y="117.64" width="9.81" height="9.81"/>
        <rect class="cls-7" x="58.82" y="107.84" width="9.81" height="9.8"/>
        <rect class="cls-7" x="58.82" y="98.04" width="9.81" height="9.8"/>
        <rect class="cls-7" x="58.82" y="88.23" width="9.81" height="9.81"/>
        <rect class="cls-7" x="58.82" y="78.43" width="9.81" height="9.8"/>
        <rect class="cls-2" x="39.22" y="205.88" width="9.8" height="9.8"/>
        <rect class="cls-2" x="39.22" y="166.66" width="9.8" height="9.81"/>
        <rect class="cls-2" x="29.41" y="215.68" width="9.81" height="9.81"/>
        <rect class="cls-2" x="29.41" y="156.86" width="9.81" height="9.8"/>
        <rect class="cls-2" x="19.61" y="215.68" width="9.8" height="9.81"/>
        <rect class="cls-2" x="19.61" y="156.86" width="9.8" height="9.8"/>
        <rect class="cls-2" x="9.8" y="215.68" width="9.81" height="9.81"/>
        <rect class="cls-2" x="9.8" y="156.86" width="9.81" height="9.8"/>
        <rect class="cls-2" y="205.88" width="9.8" height="9.8"/>
        <rect class="cls-2" y="196.08" width="9.8" height="9.8"/>
        <rect class="cls-2" y="186.27" width="9.8" height="9.81"/>
        <rect class="cls-2" y="176.47" width="9.8" height="9.8"/>
        <rect class="cls-2" y="166.66" width="9.8" height="9.81"/>
      </g>
    </g>
  </g>
</svg>