<?xml version="1.0" encoding="UTF-8"?>
<svg id="Layer_2" data-name="Layer 2" xmlns="http://www.w3.org/2000/svg" viewBox="0 0 147.56 245.6">
  <defs>
    <style>
      .cls-1 {
        fill: #000020;
      }
    </style>
  </defs>
  <g id="Layer_1-2" data-name="Layer 1">
    <g>
      <rect class="cls-1" x=".25" y="117.9" width="9.79" height="9.8"/>
      <rect class="cls-1" x="10.04" y="108.09" width="9.81" height="9.81"/>
      <rect class="cls-1" x="10.04" y="127.7" width="9.81" height="9.81"/>
      <rect class="cls-1" x="19.85" y="98.29" width="9.8" height="9.8"/>
      <rect class="cls-1" x="19.85" y="137.51" width="9.8" height="9.8"/>
      <rect class="cls-1" x="29.65" y="88.49" width="9.81" height="9.8"/>
      <rect class="cls-1" x="29.65" y="117.9" width="9.81" height="9.8"/>
      <rect class="cls-1" x="29.65" y="147.31" width="9.81" height="9.8"/>
      <rect class="cls-1" x="39.46" y="78.68" width="9.8" height="9.81"/>
      <rect class="cls-1" x="39.46" y="108.09" width="9.8" height="9.81"/>
      <rect class="cls-1" x="39.46" y="127.7" width="9.8" height="9.81"/>
      <rect class="cls-1" x="39.46" y="157.11" width="9.8" height="9.81"/>
      <rect class="cls-1" x="49.26" y="68.88" width="9.81" height="9.8"/>
      <rect class="cls-1" x="49.26" y="98.29" width="9.81" height="9.8"/>
      <rect class="cls-1" x="49.26" y="137.51" width="9.81" height="9.8"/>
      <rect class="cls-1" x="49.26" y="166.92" width="9.81" height="9.8"/>
      <rect class="cls-1" x="59.07" y="59.07" width="9.81" height="9.81"/>
      <rect class="cls-1" x="59.07" y="88.49" width="9.81" height="9.8"/>
      <rect class="cls-1" x="59.07" y="147.31" width="9.81" height="9.8"/>
      <rect class="cls-1" x="59.07" y="176.72" width="9.81" height="9.81"/>
      <rect class="cls-1" x="68.88" y="49.27" width="9.8" height="9.8"/>
      <rect class="cls-1" x="68.88" y="78.68" width="9.8" height="9.81"/>
      <rect class="cls-1" x="68.88" y="157.11" width="9.8" height="9.81"/>
      <rect class="cls-1" x="68.88" y="186.53" width="9.8" height="9.8"/>
      <rect class="cls-1" x="78.68" y="39.47" width="9.8" height="9.8"/>
      <rect class="cls-1" x="78.68" y="68.88" width="9.8" height="9.8"/>
      <rect class="cls-1" x="78.68" y="166.92" width="9.8" height="9.8"/>
      <rect class="cls-1" x="78.68" y="196.33" width="9.8" height="9.8"/>
      <rect class="cls-1" x="88.48" y="29.66" width="9.8" height="9.81"/>
      <rect class="cls-1" x="88.48" y="59.07" width="9.8" height="9.81"/>
      <rect class="cls-1" x="88.48" y="176.72" width="9.8" height="9.81"/>
      <rect class="cls-1" x="88.48" y="206.13" width="9.8" height="9.81"/>
      <rect class="cls-1" x="98.28" y="19.86" width="9.8" height="9.8"/>
      <rect class="cls-1" x="98.28" y="49.27" width="9.8" height="9.8"/>
      <rect class="cls-1" x="98.28" y="186.53" width="9.8" height="9.8"/>
      <rect class="cls-1" x="98.28" y="215.94" width="9.8" height="9.8"/>
      <rect class="cls-1" x="108.08" y="10.05" width="9.81" height="9.81"/>
      <rect class="cls-1" x="108.08" y="39.47" width="9.81" height="9.8"/>
      <rect class="cls-1" x="108.08" y="196.33" width="9.81" height="9.8"/>
      <rect class="cls-1" x="108.08" y="225.74" width="9.81" height="9.81"/>
      <rect class="cls-1" x="117.89" y=".25" width="9.81" height="9.8"/>
      <rect class="cls-1" x="117.89" y="29.66" width="9.81" height="9.81"/>
      <rect class="cls-1" x="117.89" y="206.13" width="9.81" height="9.81"/>
      <rect class="cls-1" x="117.89" y="235.55" width="9.81" height="9.8"/>
      <rect class="cls-1" x="127.7" y="19.86" width="9.81" height="9.8"/>
      <rect class="cls-1" x="127.7" y="215.94" width="9.81" height="9.8"/>
      <rect class="cls-1" x="137.51" y="10.05" width="9.8" height="9.81"/>
      <rect class="cls-1" x="137.51" y="225.74" width="9.8" height="9.81"/>
    </g>
  </g>
</svg>