<?xml version="1.0" encoding="UTF-8"?>
<svg id="Layer_2" data-name="Layer 2" xmlns="http://www.w3.org/2000/svg" viewBox="0 0 40 40">
  <defs>
    <style>
      .cls-1 {
        fill: #fff;
      }

      .cls-2 {
        fill: #000020;
      }
    </style>
  </defs>
  <g id="Layer_1-2" data-name="Layer 1">
    <path class="cls-1" d="M20,0C8.95,0,0,8.95,0,20s8.95,20,20,20,20-8.95,20-20S31.05,0,20,0Z"/>
    <path class="cls-2" d="M9.5,15.5h4v15h-4V15.5Zm1.99-2h-.02c-1.19,0-1.97-.89-1.97-2s.8-2,2.01-2,1.97,.86,1.99,2c0,1.11-.77,2-2.01,2Zm19.01,7.5c0-3.04-2.46-5.5-5.5-5.5-1.86,0-3.51,.93-4.5,2.34v-2.34h-4v15h4v-8c0-1.66,1.34-3,3-3s3,1.34,3,3v8h4v-9.5Z"/>
  </g>
</svg>