<?xml version="1.0" encoding="UTF-8"?>
<svg id="Layer_2" data-name="Layer 2" xmlns="http://www.w3.org/2000/svg" viewBox="0 0 147.56 245.6">
  <defs>
    <style>
      .cls-1 {
        fill: #000020;
      }
    </style>
  </defs>
  <g id="Layer_1-2" data-name="Layer 1">
    <g>
      <rect class="cls-1" x="137.52" y="117.9" width="9.79" height="9.8"/>
      <rect class="cls-1" x="127.71" y="127.7" width="9.81" height="9.81"/>
      <rect class="cls-1" x="127.71" y="108.09" width="9.81" height="9.81"/>
      <rect class="cls-1" x="117.91" y="137.51" width="9.8" height="9.8"/>
      <rect class="cls-1" x="117.91" y="98.29" width="9.8" height="9.8"/>
      <rect class="cls-1" x="108.1" y="147.31" width="9.81" height="9.8"/>
      <rect class="cls-1" x="108.1" y="117.9" width="9.81" height="9.8"/>
      <rect class="cls-1" x="108.1" y="88.49" width="9.81" height="9.8"/>
      <rect class="cls-1" x="98.3" y="157.11" width="9.8" height="9.81"/>
      <rect class="cls-1" x="98.3" y="127.7" width="9.8" height="9.81"/>
      <rect class="cls-1" x="98.3" y="108.09" width="9.8" height="9.81"/>
      <rect class="cls-1" x="98.3" y="78.68" width="9.8" height="9.81"/>
      <rect class="cls-1" x="88.49" y="166.92" width="9.81" height="9.8"/>
      <rect class="cls-1" x="88.49" y="137.51" width="9.81" height="9.8"/>
      <rect class="cls-1" x="88.49" y="98.29" width="9.81" height="9.8"/>
      <rect class="cls-1" x="88.49" y="68.88" width="9.81" height="9.8"/>
      <rect class="cls-1" x="78.68" y="176.72" width="9.81" height="9.81"/>
      <rect class="cls-1" x="78.68" y="147.31" width="9.81" height="9.8"/>
      <rect class="cls-1" x="78.68" y="88.49" width="9.81" height="9.8"/>
      <rect class="cls-1" x="78.68" y="59.07" width="9.81" height="9.81"/>
      <rect class="cls-1" x="68.88" y="186.53" width="9.8" height="9.8"/>
      <rect class="cls-1" x="68.88" y="157.11" width="9.8" height="9.81"/>
      <rect class="cls-1" x="68.88" y="78.68" width="9.8" height="9.81"/>
      <rect class="cls-1" x="68.88" y="49.27" width="9.8" height="9.8"/>
      <rect class="cls-1" x="59.08" y="196.33" width="9.8" height="9.8"/>
      <rect class="cls-1" x="59.08" y="166.92" width="9.8" height="9.8"/>
      <rect class="cls-1" x="59.08" y="68.88" width="9.8" height="9.8"/>
      <rect class="cls-1" x="59.08" y="39.47" width="9.8" height="9.8"/>
      <rect class="cls-1" x="49.28" y="206.13" width="9.8" height="9.81"/>
      <rect class="cls-1" x="49.28" y="176.72" width="9.8" height="9.81"/>
      <rect class="cls-1" x="49.28" y="59.07" width="9.8" height="9.81"/>
      <rect class="cls-1" x="49.28" y="29.66" width="9.8" height="9.81"/>
      <rect class="cls-1" x="39.48" y="215.94" width="9.8" height="9.8"/>
      <rect class="cls-1" x="39.48" y="186.53" width="9.8" height="9.8"/>
      <rect class="cls-1" x="39.48" y="49.27" width="9.8" height="9.8"/>
      <rect class="cls-1" x="39.48" y="19.86" width="9.8" height="9.8"/>
      <rect class="cls-1" x="29.67" y="225.74" width="9.81" height="9.81"/>
      <rect class="cls-1" x="29.67" y="196.33" width="9.81" height="9.8"/>
      <rect class="cls-1" x="29.67" y="39.47" width="9.81" height="9.8"/>
      <rect class="cls-1" x="29.67" y="10.05" width="9.81" height="9.81"/>
      <rect class="cls-1" x="19.86" y="235.55" width="9.81" height="9.8"/>
      <rect class="cls-1" x="19.86" y="206.13" width="9.81" height="9.81"/>
      <rect class="cls-1" x="19.86" y="29.66" width="9.81" height="9.81"/>
      <rect class="cls-1" x="19.86" y=".25" width="9.81" height="9.8"/>
      <rect class="cls-1" x="10.05" y="215.94" width="9.81" height="9.8"/>
      <rect class="cls-1" x="10.05" y="19.86" width="9.81" height="9.8"/>
      <rect class="cls-1" x=".25" y="225.74" width="9.8" height="9.81"/>
      <rect class="cls-1" x=".25" y="10.05" width="9.8" height="9.81"/>
    </g>
  </g>
</svg>